<?xml version="1.0" encoding="UTF-8"?><svg id="Layer_2" xmlns="http://www.w3.org/2000/svg" viewBox="0 0 786.83 786.83"><defs><style>.cls-1{fill:#000;font-family:Copperplate-Bold, Copperplate;font-size:96px;font-weight:700;}</style></defs><g id="Layer_1-2"><text ClassName="cls-1" transform="translate(126.02 216.77) rotate(-50.78)"><tspan x="0" y="0">S</tspan></text><text ClassName="cls-1" transform="translate(164.38 168.93) rotate(-39.4)"><tspan x="0" y="0">O</tspan></text><text ClassName="cls-1" transform="translate(215.07 126.07) rotate(-26.6)"><tspan x="0" y="0">M</tspan></text><text ClassName="cls-1" transform="translate(283.9 91.87) rotate(-13.71)"><tspan x="0" y="0">O</tspan></text><text ClassName="cls-1" transform="translate(348.53 76.11) rotate(-2.28)"><tspan x="0" y="0">S</tspan></text><text ClassName="cls-1" transform="translate(410.51 74.69) rotate(5.63)"><tspan x="0" y="0"> </tspan></text><text ClassName="cls-1" transform="translate(437.83 76.02) rotate(13.65)"><tspan x="0" y="0">F</tspan></text><text ClassName="cls-1" transform="translate(497.53 89.96) rotate(25.18)"><tspan x="0" y="0">O</tspan></text><text ClassName="cls-1" transform="translate(557.8 117.98) rotate(37.08)"><tspan x="0" y="0">R</tspan></text><text ClassName="cls-1" transform="translate(611.68 156.64) rotate(50.72)"><tspan x="0" y="0">W</tspan></text><text ClassName="cls-1" transform="translate(666.27 224.77) rotate(64.44)"><tspan x="0" y="0">A</tspan></text><text ClassName="cls-1" transform="translate(695.21 284.57) rotate(76.41)"><tspan x="0" y="0">R</tspan></text><text ClassName="cls-1" transform="translate(711.08 349.11) rotate(88.29)"><tspan x="0" y="0">D</tspan></text><text ClassName="cls-1" transform="translate(711.79 416.24) rotate(96.66)"><tspan x="0" y="0"> </tspan></text><text ClassName="cls-1" transform="translate(708.59 444.06) rotate(101.65)"><tspan x="0" y="0">•</tspan></text><text ClassName="cls-1" transform="translate(703.1 471.01) rotate(106.67)"><tspan x="0" y="0"> </tspan></text><text ClassName="cls-1" transform="translate(696.56 497.59) rotate(114.73)"><tspan x="0" y="0">S</tspan></text><text ClassName="cls-1" transform="translate(671.4 553.47) rotate(126.18)"><tspan x="0" y="0">O</tspan></text><text ClassName="cls-1" transform="translate(632.96 607.59) rotate(138.92)"><tspan x="0" y="0">M</tspan></text><text ClassName="cls-1" transform="translate(574.83 657.94) rotate(151.71)"><tspan x="0" y="0">O</tspan></text><text ClassName="cls-1" transform="translate(516.28 689.48) rotate(163.22)"><tspan x="0" y="0">S</tspan></text><text ClassName="cls-1" transform="translate(456.69 706.32) rotate(171.27)"><tspan x="0" y="0"> </tspan></text><text ClassName="cls-1" transform="translate(429.87 711.71) rotate(179.07)"><tspan x="0" y="0">P</tspan></text><text ClassName="cls-1" transform="translate(368.58 713.49) rotate(-168.95)"><tspan x="0" y="0">U</tspan></text><text ClassName="cls-1" transform="translate(298.21 699.49) rotate(-156.96)"><tspan x="0" y="0">E</tspan></text><text ClassName="cls-1" transform="translate(241.61 676) rotate(-145.5)"><tspan x="0" y="0">R</tspan></text><text ClassName="cls-1" transform="translate(186.84 638.05) rotate(-134.57)"><tspan x="0" y="0">T</tspan></text><text ClassName="cls-1" transform="translate(146.96 598.65) rotate(-123.63)"><tspan x="0" y="0">O</tspan></text><text ClassName="cls-1" transform="translate(110.91 542.09) rotate(-115.16)"><tspan x="0" y="0"> </tspan></text><text ClassName="cls-1" transform="translate(97.82 518.09) rotate(-106.64)"><tspan x="0" y="0">R</tspan></text><text ClassName="cls-1" transform="translate(79.7 453.66) rotate(-97.45)"><tspan x="0" y="0">I</tspan></text><text ClassName="cls-1" transform="translate(73.73 418.96) rotate(-88.4)"><tspan x="0" y="0">C</tspan></text><text ClassName="cls-1" transform="translate(75.28 352.49) rotate(-76.52)"><tspan x="0" y="0">O</tspan></text><text ClassName="cls-1" transform="translate(92.2 287.6) rotate(-68)"><tspan x="0" y="0"> </tspan></text><text ClassName="cls-1" transform="translate(102.64 261.63) rotate(-62.99)"><tspan x="0" y="0">•</tspan></text><text ClassName="cls-1" transform="translate(115.09 237.07) rotate(-57.99)"><tspan x="0" y="0"> </tspan></text><text ClassName="cls-1" transform="translate(129.86 213.33) rotate(-52.98)"><tspan x="0" y="0"> </tspan></text></g></svg>