<svg width="79" height="29" viewBox="0 0 79 29" fill="none" xmlns="http://www.w3.org/2000/svg">
<path d="M0 0V29H29V0H0ZM22.709 22.8113H19.1287V12.8377C16.9806 16.5203 13.9118 19.5891 10.3316 21.8395L8.74603 22.8113H6.29101V20.254L7.92769 19.231C11.4056 17.0829 14.321 14.1164 16.4691 10.6896L16.9806 9.82011H6.29101V6.23986H22.709V22.8113Z" fill="#0062FF"/>
<path d="M39.2779 10.1064V7.3376C39.2779 6.88766 39.3815 6.47234 39.554 6.09162C39.7266 5.71091 40.0027 5.39941 40.3133 5.12253C40.624 4.84564 41.0381 4.63798 41.4868 4.46493C41.9355 4.32649 42.4532 4.22266 42.9709 4.22266C43.1089 4.22266 43.2815 4.22266 43.4886 4.22266C43.6957 4.22266 43.9028 4.25727 44.1444 4.32649C44.386 4.39571 44.6621 4.46493 45.0072 4.53415C45.3523 4.60337 45.6975 4.77642 46.1117 4.94948V7.54526C45.6975 7.40682 45.3523 7.30299 45.0417 7.19916C44.7311 7.12994 44.4895 7.06071 44.2824 7.0261C44.0753 6.99149 43.9028 6.95688 43.7992 6.95688C43.6957 6.95688 43.6267 6.95688 43.6267 6.95688C43.4886 6.95688 43.3851 6.95688 43.247 7.0261C43.1089 7.09532 43.0054 7.12994 42.9019 7.23377C42.7983 7.30299 42.7293 7.40682 42.6603 7.54526C42.5912 7.6837 42.5567 7.82214 42.5567 7.9952V10.0718H45.1798V12.8407H42.5567V24.4698H39.2434V12.8407H37V10.0718H39.2434L39.2779 10.1064Z" fill="black"/>
<path d="M55.1891 15.3009L52.6696 24.5073H49.4944L45.3872 10.1094H48.7696L51.082 19.0043L53.5325 10.1094H56.8113L59.1927 19.0043L61.6087 10.1094H64.9565L60.8494 24.5073H57.6741L55.1201 15.3009H55.1891Z" fill="black"/>
<path d="M78.5892 24.5019H75.2759V22.9099C75.0688 23.256 74.8272 23.5329 74.5511 23.7751C74.275 24.0174 73.9989 24.1905 73.6883 24.3635C73.3777 24.5366 73.1015 24.6058 72.7909 24.675C72.4803 24.7442 72.2042 24.7788 71.9281 24.7788C70.9962 24.7788 70.1679 24.5712 69.4431 24.1905C68.7183 23.8097 68.097 23.2906 67.5793 22.5984C67.0616 21.9062 66.682 21.1447 66.4059 20.2449C66.1298 19.345 65.9917 18.3759 65.9917 17.3376C65.9917 16.2993 66.1298 15.3302 66.3368 14.4303C66.5439 13.5304 66.9236 12.6998 67.4068 12.0422C67.89 11.35 68.4767 10.8308 69.2015 10.4155C69.9263 10.0348 70.7201 9.82711 71.652 9.82711C71.9971 9.82711 72.3077 9.86172 72.6529 9.96555C72.998 10.0694 73.3086 10.1732 73.6193 10.3463C73.9299 10.5193 74.2405 10.727 74.5166 11.0039C74.7927 11.2808 75.0343 11.5576 75.2414 11.8691V4.80859H78.5547V24.5366L78.5892 24.5019ZM75.2759 17.1645C75.2759 16.5415 75.1724 15.9532 75.0343 15.3994C74.8963 14.8456 74.6892 14.3611 74.4476 13.9458C74.206 13.5304 73.8954 13.2189 73.5157 12.9767C73.1361 12.7344 72.7564 12.6306 72.2732 12.6306C71.79 12.6306 71.3759 12.769 70.9962 13.0113C70.6166 13.2535 70.3059 13.5997 70.0643 14.015C69.8227 14.4303 69.6156 14.9495 69.4776 15.5032C69.3395 16.057 69.2705 16.68 69.2705 17.3376C69.2705 17.9952 69.3395 18.5836 69.4776 19.1719C69.6156 19.7603 69.7882 20.2449 70.0643 20.6602C70.3059 21.0755 70.6511 21.4216 70.9962 21.6639C71.3759 21.9062 71.79 22.0446 72.2732 22.0446C72.7564 22.0446 73.1706 21.9062 73.5157 21.6639C73.8954 21.4216 74.206 21.0755 74.4476 20.6602C74.6892 20.2449 74.8963 19.7257 75.0343 19.1719C75.1724 18.5836 75.2414 17.9952 75.2414 17.3376V17.1299L75.2759 17.1645Z" fill="black"/>
</svg>
