<svg width="445" height="103" viewBox="0 0 445 103" fill="none" xmlns="http://www.w3.org/2000/svg">
    <g clip-path="url(#clip0_1176_100)">
        <path d="M131.849 0H203.183V18.0934H153.478V43.0497H200.063V61.143H153.478V102.113H131.849V0Z" fill="black"/>
        <path d="M236.463 102.113L210.467 0H233.968C243.534 47.0011 247.902 67.7981 249.15 79.0284C253.101 60.3112 262.876 24.7484 268.907 0H288.872C294.071 19.5491 304.47 59.2713 307.797 77.9886C311.125 55.5279 321.315 16.0137 324.851 0H346.271L318.611 102.113H295.735C290.328 79.4444 281.385 46.3772 277.849 28.9078C274.106 47.0011 264.955 81.5241 259.548 102.113H236.671H236.463Z" fill="black"/>
        <path d="M354.584 0H395.138C424.878 0 444.427 19.5491 444.427 49.9127C444.427 80.2763 425.502 102.321 394.306 102.321H354.792V0H354.584ZM376.629 84.2277H393.266C412.815 84.2277 421.55 69.6698 421.55 49.7047C421.55 33.0672 413.439 17.6774 393.474 17.6774H376.837V84.2277H376.629Z" fill="black"/>
        <path d="M92.3364 70.2917L61.3489 39.5122L60.3091 102.111L92.3364 70.2917Z" fill="#004BB7"/>
        <path d="M61.355 39.5177L92.3424 8.53027V70.2972L61.355 39.5177Z" fill="#005CFF"/>
        <path d="M61.1418 39.7257L30.3623 8.73824L92.3372 8.53027L61.1418 39.7257Z" fill="#318FFF"/>
        <path d="M30.3636 8.7334L0 39.097L61.143 39.7209L30.3636 8.7334Z" fill="#004BB7"/>
    </g>
    <defs>
        <clipPath id="clip0_1176_100">
            <rect width="444.431" height="102.113" fill="white"/>
        </clipPath>
    </defs>
</svg>
