<svg width="660" height="111" viewBox="0 0 660 111" fill="none" xmlns="http://www.w3.org/2000/svg">
<path d="M131.433 6.03174H202.767V24.1251H153.062V49.0814H199.647V67.1748H153.062V108.145H131.433V6.03174Z" fill="black"/>
<path d="M282.63 69.6733C282.63 92.9659 268.696 110.019 244.363 110.019C220.031 110.019 206.721 92.9659 206.721 70.0893C206.721 47.2126 221.071 29.7432 245.403 29.7432C268.072 29.7432 282.63 45.7568 282.63 69.6733ZM228.142 69.8813C228.142 84.6471 234.589 93.3818 244.779 93.3818C254.97 93.3818 261.001 84.6471 261.001 70.0893C261.001 54.0756 255.178 46.3807 244.571 46.3807C234.797 46.3807 228.35 53.6597 228.35 69.8813H228.142Z" fill="black"/>
<path d="M292.406 52.2039C292.406 44.509 292.406 37.854 292.406 31.4069H313.203C313.411 33.0707 313.827 40.7656 313.827 44.9249C317.155 36.1902 325.473 29.7432 338.368 29.7432V49.9162C322.978 49.5003 313.827 53.6597 313.827 74.6646V108.148H292.614V52.2039H292.406Z" fill="black"/>
<path d="M363.742 31.3984C370.605 62.1779 374.348 79.6474 375.804 89.214H376.012C377.676 80.6872 379.756 68.625 389.114 31.3984H408.871C417.606 69.0409 420.102 80.2713 421.142 88.3821C422.597 80.4793 425.093 69.0409 434.036 31.3984H455.041L432.372 108.139H409.703C403.464 79.0235 399.721 63.6337 398.057 53.6512C396.809 63.2178 392.65 80.6872 385.995 108.139H363.118L341.281 31.3984H363.742Z" fill="black"/>
<path d="M522.63 88.3885C522.63 95.6675 523.253 106.274 523.669 108.146H503.288C502.664 106.69 502.249 102.53 502.249 100.659C499.545 105.026 494.346 110.017 480.62 110.017C462.11 110.017 454.416 97.9552 454.416 85.8929C454.416 68.4235 468.349 60.3127 491.018 60.3127H502.041V55.5294C502.041 50.1222 500.169 44.7149 490.186 44.7149C481.244 44.7149 479.164 48.4584 478.332 54.0736H458.159C459.407 40.3476 467.726 29.3252 491.018 29.5332C511.607 29.5332 522.837 37.644 522.837 55.9453V88.1806L522.63 88.3885ZM501.833 73.2068H493.098C480.204 73.2068 475.628 77.1582 475.628 84.4371C475.628 90.0523 478.956 94.6276 486.651 94.6276C500.169 94.6276 501.833 85.269 501.833 75.0785V72.9988V73.2068Z" fill="black"/>
<path d="M536.974 52.2039C536.974 44.509 536.974 37.854 536.974 31.4069H557.771C557.979 33.0707 558.395 40.7656 558.395 44.9249C561.722 36.1902 570.041 29.7432 582.935 29.7432V49.9162C567.545 49.5003 558.395 53.6597 558.395 74.6646V108.148H537.182V52.2039H536.974Z" fill="black"/>
<path d="M659.677 0V87.1392C659.677 94.2102 659.677 101.281 659.677 108.144H639.296C638.88 105.856 638.464 101.905 638.256 100.033C634.512 106.064 627.857 109.808 616.419 109.808C597.078 109.808 584.6 94.2102 584.6 70.2937C584.6 46.3772 597.702 29.5317 619.331 29.5317C630.353 29.5317 636.384 33.4831 638.048 36.8106V0H659.261H659.677ZM606.644 69.8778C606.644 84.8516 612.468 92.9624 622.866 92.9624C637.424 92.9624 639.088 80.6922 639.088 69.6698C639.088 56.5677 637.216 46.5852 623.282 46.5852C612.052 46.5852 606.436 55.3199 606.436 69.8778H606.644Z" fill="black"/>
<path d="M92.3364 76.3283L61.3489 45.3408L60.3091 108.148L92.3364 76.3283Z" fill="#004BB7"/>
<path d="M61.355 45.3361L92.3424 14.3486V76.3236L61.355 45.3361Z" fill="#005CFF"/>
<path d="M61.1423 45.5441L30.3628 14.7646L92.3377 14.3486L61.1423 45.5441Z" fill="#318FFF"/>
<path d="M30.3636 14.7651L0 45.1287L61.143 45.5446L30.3636 14.7651Z" fill="#004BB7"/>
</svg>
