<svg width="92" height="27" viewBox="0 0 92 27" fill="none" xmlns="http://www.w3.org/2000/svg">
<path d="M34.0114 26.443C32.2817 26.443 30.796 26.1071 29.5542 25.4353C28.3123 24.7636 27.3588 23.8642 26.6935 22.7373C26.0504 21.6105 25.7289 20.3645 25.7289 18.9992V9.47514H30.2859V18.9992C30.2859 19.6711 30.4522 20.2886 30.7848 20.852C31.1175 21.3938 31.561 21.8272 32.1153 22.1523C32.6919 22.4773 33.3238 22.6398 34.0114 22.6398C34.6988 22.6398 35.3196 22.4773 35.874 22.1523C36.4506 21.8272 36.9052 21.3938 37.2378 20.852C37.5704 20.2886 37.7367 19.6711 37.7367 18.9992V9.47514H42.2938V18.9992C42.2938 20.3645 41.9611 21.6105 41.2959 22.7373C40.6528 23.8642 39.7103 24.7636 38.4686 25.4353C37.2489 26.1071 35.7631 26.443 34.0114 26.443ZM46.6156 26.0529V9.47514H51.2058V26.0529H46.6156ZM63.4332 26.443C62.0141 26.443 60.7389 26.2263 59.608 25.7929C58.4993 25.3378 57.5679 24.7094 56.814 23.9075C56.06 23.0841 55.4835 22.1306 55.0844 21.0471C54.6852 19.9419 54.4856 18.7392 54.4856 17.439C54.4856 15.7921 54.8182 14.351 55.4835 13.1158C56.1709 11.8589 57.1244 10.8729 58.3441 10.1578C59.5859 9.44261 61.0273 9.08514 62.6682 9.08514C63.3778 9.08514 64.0542 9.18261 64.6973 9.37766C65.3626 9.57261 65.9612 9.85437 66.4935 10.2227C67.0257 10.5912 67.4581 11.0246 67.7907 11.523H67.824V2.32405H72.3809V17.439C72.3809 19.2593 72.0151 20.852 71.2833 22.2173C70.5515 23.5608 69.5204 24.601 68.1899 25.3378C66.8594 26.0746 65.2738 26.443 63.4332 26.443ZM63.4332 22.6398C64.3425 22.6398 65.1185 22.4231 65.7616 21.9897C66.4047 21.5563 66.8926 20.9713 67.2252 20.2345C67.5801 19.4977 67.7574 18.6741 67.7574 17.764C67.7574 16.8539 67.5801 16.0304 67.2252 15.2936C66.8926 14.5568 66.4047 13.9717 65.7616 13.5383C65.1185 13.1049 64.3425 12.8882 63.4332 12.8882C62.5462 12.8882 61.7701 13.1049 61.1049 13.5383C60.4619 13.9717 59.9628 14.5568 59.608 15.2936C59.2754 16.0304 59.1091 16.8539 59.1091 17.764C59.1091 18.6741 59.2754 19.4977 59.608 20.2345C59.9628 20.9713 60.4619 21.5563 61.1049 21.9897C61.7701 22.4231 62.5462 22.6398 63.4332 22.6398ZM85.0811 26.0529C83.1518 26.0529 81.4665 25.6953 80.0251 24.9803C78.6059 24.2435 77.4971 23.2467 76.6988 21.9897C75.9227 20.7328 75.5346 19.3242 75.5346 17.764C75.5346 16.0088 75.9006 14.481 76.6324 13.1807C77.3641 11.8805 78.362 10.8729 79.626 10.1578C80.89 9.44261 82.3202 9.08514 83.9169 9.08514C85.824 9.08514 87.3651 9.47514 88.5404 10.2552C89.7379 11.0355 90.6138 12.0865 91.1682 13.4083C91.7225 14.7085 91.9997 16.1604 91.9997 17.764C91.9997 17.9807 91.9886 18.2407 91.9664 18.5441C91.9443 18.8259 91.911 19.0426 91.8667 19.1942H80.391C80.5685 19.866 80.8678 20.4295 81.2892 20.8846C81.7327 21.3396 82.2759 21.6863 82.919 21.9247C83.5843 22.1414 84.3271 22.2497 85.1476 22.2497H89.8709V26.0529H85.0811ZM80.3577 16.2038H87.4428C87.3984 15.7921 87.3208 15.4128 87.2099 15.0661C87.099 14.6977 86.9439 14.3726 86.7443 14.091C86.5447 13.8092 86.3118 13.5708 86.0457 13.3758C85.7795 13.1807 85.4692 13.0291 85.1144 12.9207C84.7595 12.8124 84.3714 12.7582 83.9502 12.7582C83.3958 12.7582 82.8969 12.8557 82.4534 13.0507C82.032 13.2458 81.6772 13.5058 81.3889 13.8308C81.1006 14.1559 80.8678 14.5244 80.6904 14.936C80.5356 15.3464 80.4241 15.7712 80.3577 16.2038ZM48.8625 6.35481C48.4326 6.35481 48.0286 6.27507 47.6506 6.11559C47.2725 5.95621 46.9437 5.73984 46.6639 5.46657C46.3843 5.19318 46.1629 4.87183 45.9997 4.50239C45.8366 4.13284 45.755 3.73805 45.755 3.31803C45.755 2.8979 45.8366 2.50322 45.9997 2.13367C46.1629 1.76423 46.3843 1.44287 46.6639 1.16949C46.9437 0.896221 47.2725 0.679844 47.6506 0.520363C48.0286 0.360991 48.4326 0.28125 48.8625 0.28125C49.2923 0.28125 49.6963 0.360991 50.0745 0.520363C50.4525 0.679844 50.7814 0.896221 51.0611 1.16949C51.3407 1.44277 51.5622 1.76423 51.7253 2.13367C51.8884 2.50311 51.97 2.8979 51.97 3.31803C51.97 3.73805 51.8884 4.13284 51.7253 4.50239C51.5622 4.87183 51.3407 5.19318 51.0611 5.46657C50.7814 5.73984 50.4525 5.95611 50.0745 6.11559C49.6963 6.27507 49.2923 6.35481 48.8625 6.35481ZM48.5517 5.73222V5.1401C48.3808 5.1401 48.2345 5.08059 48.1128 4.96169C47.9911 4.84267 47.9302 4.69973 47.9302 4.53274V4.22901L46.4386 2.77138C46.4231 2.86228 46.4089 2.95338 46.396 3.04465C46.383 3.13522 46.3765 3.22657 46.3765 3.31803C46.3765 3.9305 46.5823 4.46682 46.9941 4.92753C47.4059 5.38802 47.9251 5.6564 48.5517 5.73222ZM50.696 4.95788C50.7999 4.84601 50.8935 4.72532 50.9756 4.59725C51.0575 4.47002 51.1265 4.33524 51.1814 4.19485C51.2359 4.0556 51.2773 3.91277 51.3058 3.7659C51.3343 3.61915 51.3485 3.4699 51.3485 3.31803C51.3485 2.82196 51.2074 2.36897 50.9251 1.95907C50.6429 1.54905 50.2661 1.25304 49.7947 1.07082V1.19234C49.7947 1.35933 49.7339 1.50238 49.6121 1.62118C49.4905 1.74019 49.3442 1.79959 49.1732 1.79959H48.5517V2.40694C48.5517 2.49299 48.522 2.56512 48.4624 2.62343C48.4029 2.68152 48.3291 2.71067 48.241 2.71067H47.6195V3.31803H49.484C49.5721 3.31803 49.6459 3.34708 49.7054 3.40528C49.765 3.46348 49.7947 3.5356 49.7947 3.62176V4.53274H50.1055C50.2371 4.53174 50.3654 4.57307 50.4707 4.65034C50.5777 4.72648 50.6567 4.83433 50.696 4.95788ZM22.9202 23.6891C21.7085 24.6638 20.3574 25.4149 18.8668 25.9424C17.3763 26.4585 15.8252 26.7164 14.2135 26.7164C12.9775 26.7164 11.7839 26.5616 10.6327 26.252C9.49362 25.9539 8.42728 25.5297 7.43362 24.9792C6.44685 24.4224 5.53153 23.7525 4.70703 22.9839C3.88303 22.2042 3.18015 21.3441 2.59861 20.4038C2.01684 19.4521 1.56243 18.4314 1.23525 17.342C0.920215 16.2527 0.762695 15.1232 0.762695 13.9536C0.762695 12.7839 0.920215 11.6601 1.23525 10.5823C1.56254 9.50429 2.01684 8.49519 2.59849 7.55494C3.17834 6.60538 3.88773 5.73734 4.70714 4.97474C5.52554 4.19915 6.44179 3.5287 7.43373 2.97959C8.42739 2.42913 9.49374 2.00487 10.6328 1.70668C11.7841 1.39707 12.9776 1.24216 14.2136 1.24216C15.8254 1.24216 17.3764 1.50597 18.8669 2.03348C20.3575 2.54945 21.7086 3.29486 22.9203 4.26959L20.1937 8.56971C19.406 7.81288 18.4972 7.22238 17.4672 6.79811C16.4372 6.36231 15.3526 6.14442 14.2135 6.14442C13.0745 6.14442 12.002 6.35089 10.9962 6.76363C10.0026 7.17647 9.13005 7.73836 8.37874 8.44928C7.62743 9.14878 7.03365 9.97447 6.59749 10.9262C6.16111 11.8665 5.94303 12.8756 5.94303 13.9536C5.94303 15.0429 6.16122 16.0635 6.59749 17.0152C7.03365 17.967 7.62743 18.7984 8.37874 19.5094C9.13016 20.2203 10.0026 20.7822 10.9962 21.195C12.002 21.6079 13.0745 21.8143 14.2135 21.8143C14.8679 21.8143 15.5041 21.7397 16.1221 21.5906C16.7401 21.4416 17.3279 21.2352 17.8852 20.9714V13.9536H22.9202V23.6891Z" fill="black"/>
</svg>
