<svg width="103" height="41" viewBox="0 0 103 41" fill="none" xmlns="http://www.w3.org/2000/svg">
<g clip-path="url(#clip0_231_412)">
<mask id="mask0_231_412" style="mask-type:luminance" maskUnits="userSpaceOnUse" x="0" y="0" width="103" height="41">
<path d="M102.595 0H0.417969V41H102.595V0Z" fill="white"/>
</mask>
<g mask="url(#mask0_231_412)">
<path d="M98.6075 39.4418L94.2943 33.9396V39.45H91.2275V21.9922H94.2943V32.6905L98.0827 27.9263H101.97L97.2764 33.1551L102.595 39.4418H98.6075Z" fill="black"/>
<path d="M89.6177 39.4431V33.6867C89.6177 30.1033 87.0128 27.5969 83.3966 27.5586H83.2955C79.6765 27.5969 77.0771 30.1033 77.0771 33.6867V39.4431H80.1412V33.6867C80.1412 31.7269 81.5079 30.4641 83.3502 30.4477C85.1924 30.4313 86.5564 31.7269 86.5564 33.6867V39.4431H89.6177Z" fill="black"/>
<path d="M63.0117 33.6844C63.0117 29.7429 65.5155 27.5508 68.5467 27.5508C70.4245 27.5508 71.6764 28.3489 72.3734 29.5434H72.4226V27.9252H75.4648V39.4435H72.4199V37.8199H72.3706C71.649 39.0171 70.3999 39.8125 68.544 39.8125C65.5155 39.8125 63.0117 37.6176 63.0117 33.6844ZM72.4335 33.6844C72.4335 31.7382 71.1625 30.4426 69.3039 30.4426C67.4452 30.4426 66.1742 31.7382 66.1742 33.6844C66.1742 35.6305 67.4452 36.9234 69.3039 36.9234C71.1625 36.9234 72.4199 35.6278 72.4199 33.6844H72.4335Z" fill="black"/>
<path d="M61.8008 34.5081C61.8008 37.9221 59.1823 39.4281 56.1674 39.4281H48.7983V21.9922H55.7C58.7695 21.9922 60.9371 23.4901 60.9371 26.3655C60.9371 28.2433 59.9995 29.5827 58.2721 30.1211V30.1703C60.333 30.5339 61.8008 31.8623 61.8008 34.5081ZM51.9827 24.9415V29.1481H55.085C56.7059 29.1481 57.5887 28.3745 57.5887 27.027C57.5887 25.6795 56.6184 24.9579 55.1971 24.9579L51.9827 24.9415ZM58.4142 34.1938C58.4142 32.7451 57.4193 31.8705 55.4977 31.8705H51.9799V36.5171H55.6317C57.3783 36.5171 58.4224 35.6452 58.4224 34.202L58.4142 34.1938Z" fill="black"/>
<path d="M102.372 13.3023V13.9009H93.767C93.942 15.6721 95.2376 16.6917 97.0088 16.6917C97.6585 16.6719 98.2981 16.5235 98.8901 16.2552C99.4822 15.9868 100.015 15.6038 100.458 15.1282L102.003 17.3422C100.682 18.6657 98.8896 19.4108 97.0197 19.4141C93.2641 19.4141 90.8096 16.9705 90.8096 13.3051C90.8096 9.63968 93.1712 7.15234 96.7874 7.15234C100.272 7.15234 102.372 9.36634 102.372 13.3023ZM93.8463 11.9357H99.2802C99.1736 10.4597 98.1294 9.61234 96.6316 9.61234C95.1337 9.61234 94.0923 10.3503 93.8408 11.9302L93.8463 11.9357Z" fill="black"/>
<path d="M91.1649 7.53516L86.4745 19.0507H83.4815L78.7856 7.53516H82.2515L84.963 15.5083L87.6772 7.53516H91.1649Z" fill="black"/>
<path d="M65.1982 13.2859C65.1982 9.33901 67.702 7.15234 70.7332 7.15234C72.611 7.15234 73.8629 7.95048 74.5599 9.14494H74.6091V7.52681H77.6513V19.0451H74.6064V17.4215H74.5572C73.8356 18.6187 72.5864 19.4141 70.7305 19.4141C67.702 19.4141 65.1982 17.2192 65.1982 13.2859ZM74.62 13.2859C74.62 11.3398 73.349 10.0442 71.4904 10.0442C69.6317 10.0442 68.3607 11.3398 68.3607 13.2859C68.3607 15.2321 69.6317 16.5249 71.4849 16.5249C73.3381 16.5249 74.6009 15.2293 74.6009 13.2859H74.62Z" fill="black"/>
<path d="M61.7516 19.0245H61.6286C61.3282 19.0232 61.0322 18.951 60.7649 18.8141C60.4995 18.6759 60.2701 18.4774 60.0952 18.2346L52.0155 6.88032H51.9909V19.0327H48.7983V3.32699C48.7983 2.80817 49.0042 2.3105 49.3704 1.94313C49.7367 1.57575 50.2339 1.36863 50.7527 1.36719C51.0654 1.3695 51.3731 1.44435 51.6519 1.58585C51.931 1.73086 52.171 1.94086 52.3517 2.19812L60.4123 13.5551H60.4369V1.55032H63.6349V17.144C63.6335 17.6423 63.4348 18.1198 63.0825 18.4721C62.7301 18.8245 62.2526 19.0231 61.7543 19.0245H61.7516Z" fill="black"/>
<path d="M33.6553 6.56352e-07H18.1026C16.5749 -0.000727663 15.1093 0.604704 14.0275 1.68341C12.9457 2.76212 12.3362 4.22598 12.3325 5.75367V19.4395C12.3358 20.1566 12.4798 20.866 12.7562 21.5277C13.032 22.1898 13.4371 22.7901 13.9479 23.2935L34.1282 40.1335C34.7019 40.6876 35.4681 40.9981 36.2656 41C36.6871 41 37.1045 40.9153 37.4929 40.7513C38.065 40.5184 38.5537 40.1182 38.8948 39.6033C39.2362 39.0883 39.4144 38.4826 39.4062 37.8649V5.7564C39.4054 4.23087 38.7994 2.76796 37.7214 1.68874C36.6431 0.60952 35.1808 0.00217257 33.6553 6.56352e-07ZM36.2246 5.75367V37.6899L16.1647 20.9565C15.7681 20.545 15.5441 19.9973 15.5387 19.4258V5.75913C15.5384 5.42343 15.6042 5.09092 15.7325 4.78071C15.8608 4.47048 16.0491 4.18859 16.2865 3.9512C16.5239 3.71381 16.8057 3.52559 17.116 3.39729C17.4262 3.26896 17.7587 3.20311 18.0944 3.20347H33.6553C33.9915 3.20377 34.3247 3.26874 34.6366 3.3948C35.1045 3.58846 35.505 3.91632 35.787 4.33703C36.0691 4.75778 36.2205 5.25259 36.2219 5.75913L36.2246 5.75367Z" fill="black"/>
<path d="M6.17464 41H21.7382C23.2612 40.9973 24.7212 40.3921 25.7997 39.3165C26.8781 38.2412 27.4874 36.783 27.4946 35.26V21.5496C27.4921 20.8325 27.3482 20.123 27.071 19.4617C26.7938 18.8003 26.3888 18.2002 25.8792 17.6956L5.70177 0.855555C5.12299 0.303671 4.35312 -0.00290318 3.55337 2.0724e-05C3.13358 0.000440805 2.71813 0.0850184 2.33157 0.248754C1.75943 0.481734 1.27081 0.881784 0.929487 1.39669C0.588166 1.9116 0.409999 2.51745 0.418242 3.13516V35.2327C0.417524 35.9893 0.565848 36.7387 0.854746 37.4382C1.14364 38.1374 1.56746 38.7729 2.10199 39.3086C2.63652 39.8441 3.27129 40.2691 3.97009 40.5594C4.66887 40.8497 5.41799 40.9992 6.17464 41ZM3.61624 35.2381V3.30189L23.6652 20.0326C24.0627 20.4446 24.2868 20.9936 24.2912 21.566V35.2327C24.2919 35.5683 24.2264 35.9007 24.0984 36.2109C23.9704 36.5212 23.7824 36.803 23.5452 37.0405C23.308 37.2777 23.0263 37.4661 22.7163 37.5945C22.4062 37.7227 22.0738 37.7886 21.7382 37.7883H6.18557C5.84926 37.7881 5.51612 37.723 5.2043 37.597C4.73595 37.4035 4.33527 37.0758 4.05269 36.6551C3.77012 36.2344 3.61826 35.7394 3.61624 35.2327V35.2381Z" fill="black"/>
</g>
</g>
<defs>
<clipPath id="clip0_231_412">
<rect width="102.227" height="41" fill="white" transform="translate(0.417969)"/>
</clipPath>
</defs>
</svg>
