<svg width="141" height="29" viewBox="0 0 141 29" fill="none" xmlns="http://www.w3.org/2000/svg">
<path d="M10.8008 3.20388H7.92894L4.74062 25.799H7.61248L7.23273 28.6708H0.531738L4.48746 0.332031H11.1884L10.8008 3.20388Z" fill="black"/>
<path d="M26.5884 25.799H29.4603L32.6486 3.20388H29.7767L30.1565 0.332031H36.8575L32.9018 28.6708H26.2324L26.5884 25.799Z" fill="black"/>
<path d="M17.1997 11.1675L17.4608 9.33203H17.4529L17.1997 11.1675Z" fill="black"/>
<path d="M25.4498 8.85183C25.2124 8.23474 24.8485 7.74423 24.358 7.3803C23.8991 7.04011 23.3453 6.80276 22.7045 6.64453L21.4229 15.7981C22.1586 15.6398 22.8074 15.3788 23.377 15.0069C23.9466 14.6351 24.4292 14.1367 24.8169 13.5117C25.2045 12.8867 25.4656 12.1113 25.6001 11.1857C25.7425 10.2522 25.6871 9.47683 25.4498 8.85183Z" fill="black"/>
<path d="M17.4516 9.33378H17.4595L17.8788 6.38281H14.3899L12.1826 22.2057H15.6399L17.1985 11.1692L17.4516 9.33378Z" fill="black"/>
<path d="M45.5927 6.24219H51.3206C52.1197 6.24219 52.8633 6.31339 53.5516 6.45579C54.2399 6.5982 54.8254 6.85137 55.308 7.20738C55.7906 7.5634 56.1387 8.03808 56.376 8.64726C56.6055 9.24853 56.6608 10.008 56.5263 10.9258C56.3918 11.8277 56.1387 12.5792 55.7668 13.1884C55.3871 13.7976 54.9203 14.2802 54.3665 14.6441C53.8048 15.0081 53.1719 15.2612 52.4519 15.4194C51.732 15.5698 50.9646 15.6489 50.1576 15.6489H47.6734L46.8427 21.6537H43.4487L45.5927 6.24219ZM48.0769 12.777H50.3396C50.6481 12.777 50.9409 12.7454 51.2336 12.69C51.5263 12.6346 51.7953 12.5318 52.0406 12.3973C52.2858 12.2628 52.4994 12.0729 52.6735 11.8277C52.8475 11.5903 52.9583 11.2897 52.9978 10.9258C53.0532 10.5302 53.0058 10.2216 52.8554 9.97639C52.7051 9.73904 52.4915 9.54917 52.2225 9.42259C51.9535 9.28809 51.645 9.20897 51.3048 9.16942C50.9646 9.12986 50.6323 9.11403 50.3159 9.11403H48.5753L48.0769 12.777Z" fill="black"/>
<path d="M62.7032 6.24219H66.0972L64.3804 18.5207H70.67L70.2349 21.6537H60.5513L62.7032 6.24219Z" fill="black"/>
<path d="M82.6009 6.24219H85.4095L89.9586 21.6537H86.1294L85.2592 18.3862H79.2702L77.5297 21.6537H73.7876L82.6009 6.24219ZM83.2734 10.728L80.7259 15.5144H84.4918L83.2734 10.728Z" fill="black"/>
<path d="M97.4906 9.24854H93.0918L93.5032 6.24219H105.695L105.283 9.24854H100.885L99.144 21.6537H95.75L97.4906 9.24854Z" fill="black"/>
<path d="M110.818 6.24219H121.285L120.85 9.37511H113.777L113.365 12.2549H120.051L119.615 15.3878H112.93L112.495 18.5207H119.964L119.528 21.6537H108.666L110.818 6.24219Z" fill="black"/>
<path d="M132.737 6.24219H135.546L140.095 21.6537H136.266L135.395 18.3862H129.406L127.666 21.6537H123.924L132.737 6.24219ZM133.41 10.728L130.862 15.5144H134.628L133.41 10.728Z" fill="black"/>
</svg>
