<svg width="137" height="25" viewBox="0 0 137 25" fill="none" xmlns="http://www.w3.org/2000/svg">
<g clip-path="url(#clip0_231_402)">
<path d="M25.6428 0.410156V24.587C22.1633 24.5831 18.8276 23.2123 16.3686 20.7757C13.9096 18.3391 12.5283 15.036 12.5283 11.5921V0.410156H25.6428Z" fill="black" fill-opacity="0.22"/>
<path d="M13.6566 12.2955H12.5283V0.410156H25.6428C25.6428 3.55858 24.3807 6.57838 22.1335 8.80669C19.8863 11.035 16.8376 12.2897 13.6566 12.2955Z" fill="black" fill-opacity="0.31"/>
<path d="M12.5284 12.2955H12.0082C8.82344 12.2955 5.7691 11.0433 3.51712 8.81437C1.26515 6.58543 0 3.56235 0 0.410156L12.5284 0.410156V12.2955Z" fill="black" fill-opacity="0.51"/>
<path d="M58.5467 24.587H51.1029L45.6007 13.9779H42.7946V20.5043H45.8498V24.6015H33.0796V20.4898H36.4278V4.53631H33.0796V0.410156H48.2968C53.0444 0.410156 55.6234 3.50658 55.6234 7.17589C55.6234 9.95325 54.2606 11.9112 51.4179 13.1947L55.3743 20.4898H58.5393L58.5467 24.587ZM45.3589 10.0838C48.2016 10.0838 49.0222 8.51743 49.0222 7.2339C49.0301 6.8536 48.9566 6.47595 48.8067 6.12572C48.6567 5.7755 48.4336 5.46062 48.152 5.20177C47.8704 4.94291 47.5367 4.74592 47.1727 4.62374C46.8088 4.50155 46.4228 4.45693 46.0403 4.4928H42.7946V10.0838H45.3589Z" fill="black"/>
<path d="M61.6161 4.4783H58.7588V0.410156H70.7597V4.4783H67.9756L72.0125 16.4942H72.0785L76.152 4.4783H73.4705V0.410156H83.691V4.4783H80.8337L73.7929 24.587H68.9061L61.6161 4.4783Z" fill="black"/>
<path d="M108.66 8.09684C108.66 10.7316 107.832 12.6653 106.176 13.8981C104.52 15.1309 101.939 15.7521 98.432 15.7618H95.8751V20.468H99.2892V24.5724H86.4531V20.4826H89.5303V4.52906H86.4531V0.410156H98.3295C101.827 0.410156 104.428 1.03863 106.132 2.29557C107.837 3.55251 108.689 5.48627 108.689 8.09684H108.66ZM101.978 8.09684C102.033 7.28225 101.817 6.47226 101.363 5.79083C100.912 5.23774 100.27 4.87062 99.5603 4.76111C98.6778 4.58545 97.7789 4.5028 96.8788 4.51455H95.8751V11.7661H96.8788C97.9398 11.8092 99.0004 11.6718 100.015 11.3601C100.656 11.1634 101.199 10.7366 101.538 10.1635C101.837 9.51609 101.978 8.80807 101.949 8.09684" fill="black"/>
<path d="M133.806 6.9349C133.857 8.24957 133.498 9.54795 132.78 10.655C131.975 11.7448 130.882 12.5951 129.623 13.1133L133.586 20.3648H136.737V24.462H129.315L123.82 13.9907H121.036V20.4446H124.091V24.5418L111.365 24.5853V20.4881H114.713L114.654 4.53463H111.306V0.43748L125.227 0.386719C127.923 0.386719 130.033 0.930588 131.564 2.05458C132.313 2.62454 132.908 3.36751 133.299 4.21836C133.69 5.06922 133.864 6.00199 133.806 6.9349ZM126.97 7.23222C126.998 6.84252 126.931 6.45183 126.774 6.09332C126.618 5.7348 126.376 5.41902 126.069 5.17277C125.363 4.67922 124.507 4.43878 123.644 4.49112H120.765V10.0966H123.087C125.666 10.0966 126.951 9.12972 126.941 7.19596" fill="black"/>
</g>
<defs>
<clipPath id="clip0_231_402">
<rect width="136.75" height="24.1768" fill="white" transform="translate(0 0.410156)"/>
</clipPath>
</defs>
</svg>
